<svg width="24" height="24" viewBox="0 0 24 24" fill="none" xmlns="http://www.w3.org/2000/svg">
<g clip-path="url(#clip0_12183_965)">
<path fill-rule="evenodd" clip-rule="evenodd" d="M12 2C17.5228 2 22 6.47715 22 12C22 17.5228 17.5228 22 12 22L11.742 21.9968C6.33839 21.86 2 17.4366 2 12C2 6.47715 6.47715 2 12 2ZM7.97611 16.9678C7.86336 17.0409 7.75246 17.1151 7.64408 17.1899C7.0453 17.603 6.54062 18.0174 6.17832 18.3358C7.55013 19.5968 9.33265 20.418 11.3023 20.576V20.4888L11.3005 20.4875C11.2974 20.4849 11.2928 20.4815 11.2873 20.477C11.2762 20.4679 11.2603 20.4547 11.2401 20.438C11.1996 20.4043 11.1412 20.3553 11.068 20.2922C10.9213 20.1658 10.7134 19.982 10.4652 19.7494C9.96952 19.2848 9.30704 18.6202 8.6429 17.8217C8.42135 17.5553 8.19723 17.2692 7.97611 16.9678ZM16.0234 16.9682C15.8024 17.2695 15.5785 17.5554 15.3571 17.8217C14.693 18.6202 14.0305 19.2848 13.5348 19.7494C13.2866 19.982 13.0787 20.1658 12.932 20.2922C12.8588 20.3553 12.8004 20.4043 12.7599 20.438C12.7397 20.4547 12.7238 20.4679 12.7127 20.477C12.7072 20.4815 12.7026 20.4849 12.6995 20.4875L12.6977 20.4888V20.576C14.6672 20.418 16.4495 19.5967 17.8212 18.3358C17.4589 18.0174 16.9542 17.603 16.3555 17.1899C16.2471 17.1151 16.1361 17.0414 16.0234 16.9682ZM11.3023 15.5719C10.591 15.6787 9.87511 15.936 9.19568 16.2701C9.36501 16.496 9.53873 16.7167 9.71575 16.9296C10.2826 17.6112 10.8526 18.1897 11.3023 18.6179V15.5719ZM12.6977 18.6179C13.1474 18.1897 13.7174 17.6112 14.2842 16.9296C14.4611 16.7169 14.6347 16.4963 14.8039 16.2705C14.1245 15.9365 13.409 15.6787 12.6977 15.5719V18.6179ZM3.42351 12.6977C3.56262 14.4313 4.21599 16.0195 5.23038 17.3107C5.62503 16.9624 6.18349 16.5024 6.85193 16.0412C6.96492 15.9632 7.08206 15.8848 7.20258 15.8063C6.63452 14.8512 6.17506 13.7934 5.99755 12.6977H3.42351ZM18.0025 12.6977C17.8249 13.7934 17.3651 14.8511 16.797 15.8063C16.9176 15.8849 17.035 15.9631 17.1481 16.0412C17.8164 16.5023 18.3745 16.9624 18.7692 17.3107C19.7837 16.0195 20.4374 14.4314 20.5765 12.6977H18.0025ZM7.41561 12.6977C7.58324 13.5097 7.94522 14.3264 8.40943 15.1046C9.2909 14.6533 10.2794 14.285 11.3023 14.1648V12.6977H7.41561ZM12.6977 14.1648C13.7204 14.285 14.7087 14.6534 15.5901 15.1046C16.0544 14.3264 16.4167 13.5098 16.5844 12.6977H12.6977V14.1648ZM5.23038 6.68841C4.21579 7.97972 3.56264 9.56846 3.42351 11.3023H5.93487C6.02261 10.1661 6.43758 9.05919 6.99001 8.05196C6.94358 8.02064 6.89712 7.99003 6.85193 7.95885C6.18324 7.49745 5.62506 7.03677 5.23038 6.68841ZM8.18459 8.77734C7.73874 9.60129 7.42151 10.4594 7.33657 11.3023H11.3023V9.83476C10.1915 9.70421 9.12116 9.28173 8.18459 8.77734ZM15.815 8.77734C14.8785 9.28163 13.8083 9.70425 12.6977 9.83476V11.3023H16.6634C16.5785 10.4593 16.2609 9.60134 15.815 8.77734ZM18.7692 6.68841C18.3745 7.03675 17.8166 7.49756 17.1481 7.95885C17.1027 7.99012 17.0561 8.02055 17.0095 8.05196C17.562 9.05924 17.9774 10.166 18.0651 11.3023H20.5765C20.4374 9.56836 19.7839 7.97976 18.7692 6.68841ZM11.3023 4.86882C10.8525 5.29715 10.2827 5.87634 9.71575 6.55805C9.44243 6.88669 9.17589 7.23318 8.92451 7.59139C9.68313 7.99207 10.4956 8.30649 11.3023 8.4276V4.86882ZM12.6977 8.4276C13.5043 8.30649 14.3165 7.99163 15.075 7.59093C14.8238 7.23291 14.5574 6.88653 14.2842 6.55805C13.7173 5.87634 13.1475 5.29715 12.6977 4.86882V8.4276ZM10.7382 3.4871C8.99276 3.74358 7.41748 4.52409 6.17787 5.6637C6.54019 5.98217 7.04503 6.39678 7.64408 6.81014C7.67161 6.82913 7.69983 6.84755 7.72765 6.86646C8.0264 6.43524 8.33787 6.03228 8.6429 5.66552C9.30701 4.867 9.96953 4.20242 10.4652 3.73783C10.5627 3.64644 10.6544 3.56289 10.7382 3.4871ZM13.5348 3.73783C14.0305 4.20242 14.693 4.867 15.3571 5.66552C15.662 6.03216 15.9728 6.4354 16.2714 6.86646C16.2994 6.84746 16.3278 6.82922 16.3555 6.81014C16.9545 6.39683 17.4589 5.98173 17.8212 5.66325C16.5816 4.52389 15.0066 3.74346 13.2614 3.4871C13.3452 3.56295 13.4372 3.64635 13.5348 3.73783Z" fill="black"/>
</g>
<defs>
<clipPath id="clip0_12183_965">
<rect width="24" height="24" fill="white"/>
</clipPath>
</defs>
</svg>
