<svg width="200" height="200" viewBox="0 0 200 200" fill="none" xmlns="http://www.w3.org/2000/svg">
<path d="M117.399 187.889C117.399 187.889 106.705 175.381 101.928 166.088C97.1521 156.796 92.6458 136.814 92.0269 129.337C91.4079 121.86 93.1728 116.103 98.8345 115.011C104.496 113.919 109.355 118.128 109.355 124.356C109.355 130.584 112.318 148.399 117.399 157.991C122.48 167.583 135.345 179.168 135.345 179.168" stroke="#005288"/>
<path d="M108.736 191C108.736 191 95.3318 175.461 90.1711 163.594C85.0104 151.727 82.7455 131.205 82.7451 124.353C82.7447 117.502 88.2205 108.38 94.5023 105.668C100.784 102.956 105.429 104.489 111.211 108.159C116.993 111.829 118.018 121.239 119.256 128.091C120.494 134.942 123.752 148.645 126.682 155.497C129.612 162.348 139.678 175.428 139.678 175.428" stroke="#005288"/>
<path d="M127.3 183.526C127.3 183.526 121.275 178.168 118.018 174.183C114.761 170.198 109.628 161.852 106.26 153.005C102.892 144.159 100.69 123.731 100.69 123.731" stroke="#005288"/>
<path d="M75.9378 136.81C75.9378 136.81 72.9011 123.58 75.9375 115.634C78.9738 107.688 83.9873 100.25 92.6459 97.5706C101.304 94.8912 110.6 96.1835 116.162 100.685C121.723 105.186 124.825 108.782 126.063 116.879C127.301 124.976 128.539 134.942 128.539 134.942" stroke="#005288"/>
<path d="M131.013 143.04C131.013 143.04 137.23 152.512 139.677 156.743C142.124 160.973 145.865 167.954 145.865 167.954" stroke="#005288"/>
<path d="M70.3682 156.12C70.3682 156.12 62.8497 127.347 67.8925 113.765C72.9352 100.183 77.8826 92.5264 90.1703 87.6048C102.458 82.6831 114.926 87.4796 122.97 94.4563C131.013 101.433 132.869 105.045 135.345 114.388C137.821 123.731 136.642 129.994 137.821 134.32C139.001 138.645 150.198 159.234 150.198 159.234" stroke="#005288"/>
<path d="M71.6054 161.726C71.6054 161.726 74.5055 170.678 77.1749 176.051C79.8442 181.425 85.2197 189.132 85.2197 189.132" stroke="#005288"/>
<path d="M148.959 103.799C148.959 103.799 152.672 113.142 153.91 121.862C155.148 130.582 157.004 139.925 157.004 139.925M145.865 129.96C145.865 129.96 149.843 138.819 151.435 141.794C153.027 144.769 155.767 149.268 155.767 149.268" stroke="#005288"/>
<path d="M61.0846 152.383C61.0846 152.383 55.3223 125.157 59.2284 111.897C63.1346 98.6364 67.2106 90.2976 79.031 83.2448C90.8513 76.192 100.291 74.5541 113.686 78.8848C127.08 83.2155 137.454 97.0696 139.677 103.799C141.899 110.529 145.246 125.6 145.246 125.6" stroke="#005288"/>
<path d="M62.3227 158.611C62.3227 158.611 63.5702 164.84 66.0357 171.068C68.5013 177.297 70.9864 182.28 70.9864 182.28" stroke="#005288"/>
<path d="M51.1839 105.669C51.1839 105.669 59.1153 87.3447 67.8924 79.508C76.6694 71.6714 94.6725 65.7563 103.785 67.0509C112.897 68.3456 118.637 68.9194 129.157 76.3937C139.677 83.8681 145.246 95.0796 145.246 95.0796" stroke="#005288"/>
<path d="M42.5198 106.292C42.5198 106.292 46.2328 84.7361 65.4166 70.1655C84.6004 55.595 100.69 54.9161 122.349 62.0676C144.008 69.2191 153.291 90.7195 153.291 90.7195" stroke="#005288"/>
<path d="M156.386 98.1936C156.386 98.1936 158.242 102.091 160.717 113.765C163.193 125.439 163.193 131.205 163.193 131.205" stroke="#005288"/>
<path d="M40.6634 124.354C40.6634 124.354 40.0444 128.714 40.6634 134.942C41.2823 141.171 42.5197 148.023 42.5197 148.023" stroke="#005288"/>
<path d="M32 114.388C32 114.388 33.0086 104.422 36.3315 95.0792C39.6544 85.7363 44.9952 79.5077 44.9952 79.5077" stroke="#005288"/>
<path d="M53.6591 68.2965C53.6591 68.2965 72.2241 51.3967 88.9325 48.9878C105.641 46.5788 120.493 48.9879 135.964 58.3305C146.272 64.5556 158.584 81.2838 165.049 95.0797C168.287 101.988 169.381 111.895 169.381 111.895" stroke="#005288"/>
<path d="M74.6996 44.628C74.6996 44.628 103.785 29.6791 133.489 46.4963C163.193 63.3134 170 86.3598 170 86.3598" stroke="#005288"/>
<path d="M32 85.1135C32 85.1135 35.6096 77.0163 42.5202 68.2962C49.4307 59.5762 59.2286 52.1018 59.2286 52.1018" stroke="#005288"/>
<path d="M66.036 37.1527C66.036 37.1527 77.7007 30.7654 87.6951 29.0561C97.6895 27.3468 104.729 26.8896 114.924 29.0562C125.119 31.2228 133.192 35.3846 140.296 39.6449C147.4 43.9052 153.91 49.6099 153.91 49.6099" stroke="#005288"/>
<path d="M37.5694 59.5761C37.5694 59.5761 42.5201 53.2112 47.4707 48.9874C52.4214 44.7637 56.1344 42.7588 56.1344 42.7588" stroke="#005288"/>
<path d="M64.7984 16.5988C64.7984 16.5988 68.5114 15.065 71.6055 14.1074C74.6997 13.1498 79.0315 12.2388 79.0315 12.2388" stroke="#005288"/>
<path d="M89.5517 10.3701C89.5517 10.3701 98.8341 9.53736 108.735 10.3701C118.637 11.2029 127.3 13.4845 127.3 13.4845" stroke="#005288"/>
<path d="M48.0892 37.7761C48.0892 37.7761 54.8964 30.6715 70.986 24.696C87.0757 18.7205 102.546 19.7131 102.546 19.7131" stroke="#005288"/>
<path d="M118.018 20.9587C118.018 20.9587 122.968 21.5672 129.776 24.0731C136.583 26.5789 140.296 29.056 140.296 29.056" stroke="#005288"/>
<path d="M48.7085 117.502C48.7085 117.502 48.3003 124.514 48.7089 134.32C49.1175 144.125 55.5154 166.709 55.5154 166.709" stroke="#005288"/>
<path d="M96.9772 191C96.9772 191 86.8212 175.919 83.3628 167.331C79.9045 158.744 77.7934 148.022 77.7934 148.022" stroke="#005288"/>
<circle cx="57.5348" cy="11.5349" r="2.5" transform="rotate(-43.871 57.5348 11.5349)" fill="#005B84"/>
<circle cx="40.4139" cy="38.4139" r="1" transform="rotate(-43.871 40.4139 38.4139)" fill="#005B84"/>
<circle cx="32.4139" cy="29.4139" r="1" transform="rotate(-43.871 32.4139 29.4139)" fill="#005B84"/>
<circle cx="48.0697" cy="21.0697" r="5" transform="rotate(-43.871 48.0697 21.0697)" fill="#005B84"/>
<circle cx="26.2418" cy="63.2418" r="3" transform="rotate(-43.871 26.2418 63.2418)" fill="#005B84"/>
<circle cx="31.6526" cy="45.6526" r="1.5" transform="rotate(83.8265 31.6526 45.6526)" fill="#7AA5C1"/>
<circle cx="173.185" cy="140.569" r="5.5" transform="rotate(89.2777 173.185 140.569)" fill="#005B84"/>
<circle cx="173.615" cy="156.119" r="2" transform="rotate(89.2777 173.615 156.119)" fill="#005B84"/>
<circle cx="144.025" cy="181.838" r="2" transform="rotate(89.2777 144.025 181.838)" fill="#005B84"/>
<circle cx="163.622" cy="157.15" r="1" transform="rotate(89.2777 163.622 157.15)" fill="#005B84"/>
<circle cx="155.02" cy="168.04" r="3" transform="rotate(89.2777 155.02 168.04)" fill="#005B84"/>
<circle cx="149.93" cy="179.524" r="1" transform="rotate(-143.025 149.93 179.524)" fill="#7AA5C1"/>
<path d="M141.721 71.8963C144.823 77.3472 151.756 79.3981 149.241 82.1297C146.726 84.8613 144.403 84.9498 141.721 87.5499C139.039 90.15 144.704 95.7985 141.721 99.7249C138.737 103.651 126.841 99.9025 126.24 103.203C125.639 106.504 128.014 108.266 130.11 111.03C132.206 113.794 145.813 114.592 151.396 121.466C156.979 128.34 156.37 135.73 155.266 144.946C154.162 154.163 81.1393 187.915 74.9604 179.732C68.7815 171.549 67.896 165.253 67.2201 155.382C66.5441 145.511 67.23 138.666 72.0578 129.293C76.8855 119.919 103.233 107.222 103.987 103.203C104.74 99.1848 104.956 96.7488 103.987 92.7678C103.017 88.7867 96.7308 84.6568 94.3112 78.8535C91.8916 73.0502 90.2665 69.3118 91.4086 63.2C92.5507 57.0882 95.0587 49.9526 106.669 45.6046C118.28 41.2565 132.793 46.4741 136.663 52.5617C140.533 58.6493 138.619 66.4455 141.721 71.8963Z" fill="#005B84"/>
<path d="M124.598 56.5434C127.944 62.5115 135.422 64.7571 132.709 67.7479C129.996 70.7386 127.491 70.8356 124.598 73.6824C121.705 76.5292 127.815 82.7137 124.598 87.0127C121.38 91.3116 108.547 87.2072 107.899 90.8213C107.251 94.4355 109.813 96.3647 112.074 99.3908C114.335 102.417 129.012 103.29 135.034 110.817C141.056 118.343 140.399 126.434 139.208 136.525C138.018 146.616 59.2514 183.571 52.5865 174.612C45.9216 165.652 44.9665 158.759 44.2374 147.951C43.5082 137.143 44.2481 129.649 49.4556 119.386C54.663 109.123 83.0826 95.2214 83.8956 90.8213C84.7087 86.4213 84.9418 83.7542 83.8956 79.3954C82.8494 75.0365 76.0691 70.5147 73.4593 64.1607C70.8494 57.8067 69.0964 53.7137 70.3283 47.0219C71.5603 40.3301 74.2655 32.5175 86.7892 27.7568C99.3128 22.9961 114.967 28.7088 119.142 35.3741C123.317 42.0394 121.252 50.5754 124.598 56.5434Z" fill="#7AB9D5"/>
</svg>
