<svg width="152" height="149" viewBox="0 0 152 149" fill="none" xmlns="http://www.w3.org/2000/svg">
<g clip-path="url(#clip0_9289_222)">
<circle opacity="0.2" cx="6" cy="86" r="6" fill="#002B47"/>
<circle opacity="0.2" cx="6" cy="73" r="3" fill="#002B47"/>
<circle opacity="0.2" cx="6" cy="63" r="3" fill="#002B47"/>
<circle opacity="0.2" cx="6" cy="53" r="3" fill="#002B47"/>
<circle opacity="0.2" cx="6" cy="102" r="6" fill="#002B47"/>
<circle opacity="0.2" cx="6" cy="117" r="5" fill="#002B47"/>
<circle opacity="0.2" cx="6" cy="129" r="3" fill="#002B47"/>
<circle opacity="0.2" cx="6" cy="139" r="3" fill="#002B47"/>
<circle opacity="0.2" cx="6" cy="149" r="3" fill="#002B47"/>
<circle opacity="0.2" cx="25" cy="89" r="3" fill="#002B47"/>
<circle opacity="0.2" cx="25" cy="79" r="3" fill="#002B47"/>
<circle opacity="0.2" cx="25" cy="69" r="3" fill="#002B47"/>
<circle opacity="0.2" cx="25" cy="133" r="3" fill="#002B47"/>
<circle opacity="0.2" cx="25" cy="123" r="3" fill="#002B47"/>
<circle opacity="0.2" cx="25" cy="113" r="3" fill="#002B47"/>
<circle opacity="0.2" cx="25" cy="101" r="5" fill="#002B47"/>
<circle opacity="0.2" cx="44" cy="57" r="3" fill="#002B47"/>
<circle opacity="0.2" cx="44" cy="47" r="3" fill="#002B47"/>
<circle opacity="0.2" cx="44" cy="37" r="3" fill="#002B47"/>
<circle opacity="0.2" cx="44" cy="103" r="3" fill="#002B47"/>
<circle opacity="0.2" cx="44" cy="93" r="3" fill="#002B47"/>
<circle opacity="0.2" cx="44" cy="83" r="3" fill="#002B47"/>
<circle opacity="0.2" cx="44" cy="70" r="6" fill="#002B47"/>
<circle opacity="0.2" cx="63" cy="29" r="3" fill="#002B47"/>
<circle opacity="0.2" cx="63" cy="19" r="3" fill="#002B47"/>
<circle opacity="0.2" cx="63" cy="9" r="3" fill="#002B47"/>
<circle opacity="0.2" cx="63" cy="86" r="6" fill="#002B47"/>
<circle opacity="0.2" cx="63" cy="116" r="6" fill="#002B47"/>
<circle opacity="0.2" cx="63" cy="101" r="5" fill="#002B47"/>
<circle opacity="0.2" cx="63" cy="56" r="6" fill="#002B47"/>
<circle opacity="0.2" cx="63" cy="71" r="5" fill="#002B47"/>
<circle opacity="0.2" cx="63" cy="41" r="5" fill="#002B47"/>
<circle opacity="0.2" cx="63" cy="149" r="3" fill="#002B47"/>
<circle opacity="0.2" cx="63" cy="139" r="3" fill="#002B47"/>
<circle opacity="0.2" cx="63" cy="129" r="3" fill="#002B47"/>
<circle opacity="0.2" cx="82" cy="73" r="3" fill="#002B47"/>
<circle opacity="0.2" cx="82" cy="63" r="3" fill="#002B47"/>
<circle opacity="0.2" cx="82" cy="53" r="3" fill="#002B47"/>
<circle opacity="0.2" cx="82" cy="149" r="3" fill="#002B47"/>
<circle opacity="0.2" cx="82" cy="139" r="3" fill="#002B47"/>
<circle opacity="0.2" cx="82" cy="129" r="3" fill="#002B47"/>
<circle opacity="0.2" cx="82" cy="102" r="6" fill="#002B47"/>
<circle opacity="0.2" cx="82" cy="86" r="6" fill="#002B47"/>
<circle opacity="0.2" cx="82" cy="117" r="5" fill="#002B47"/>
<circle opacity="0.2" cx="101" cy="57" r="3" fill="#002B47"/>
<circle opacity="0.2" cx="101" cy="47" r="3" fill="#002B47"/>
<circle opacity="0.2" cx="101" cy="37" r="3" fill="#002B47"/>
<circle opacity="0.2" cx="101" cy="135" r="3" fill="#002B47"/>
<circle opacity="0.2" cx="101" cy="125" r="3" fill="#002B47"/>
<circle opacity="0.2" cx="101" cy="115" r="3" fill="#002B47"/>
<circle opacity="0.2" cx="101" cy="86" r="6" fill="#002B47"/>
<circle opacity="0.2" cx="101" cy="70" r="6" fill="#002B47"/>
<circle opacity="0.2" cx="101" cy="102" r="6" fill="#002B47"/>
<circle opacity="0.2" cx="120" cy="61" r="3" fill="#002B47"/>
<circle opacity="0.2" cx="120" cy="51" r="3" fill="#002B47"/>
<circle opacity="0.2" cx="120" cy="41" r="3" fill="#002B47"/>
<circle opacity="0.2" cx="120" cy="149" r="3" fill="#002B47"/>
<circle opacity="0.2" cx="120" cy="139" r="3" fill="#002B47"/>
<circle opacity="0.2" cx="120" cy="129" r="3" fill="#002B47"/>
<circle opacity="0.2" cx="120" cy="101" r="5" fill="#002B47"/>
<circle opacity="0.2" cx="120" cy="116" r="6" fill="#002B47"/>
<circle opacity="0.2" cx="120" cy="87" r="5" fill="#002B47"/>
<circle opacity="0.2" cx="120" cy="73" r="5" fill="#002B47"/>
<circle opacity="0.2" cx="139" cy="83" r="3" fill="#002B47"/>
<circle opacity="0.2" cx="139" cy="73" r="3" fill="#002B47"/>
<circle opacity="0.2" cx="139" cy="63" r="3" fill="#002B47"/>
<circle opacity="0.2" cx="139" cy="53" r="3" fill="#002B47"/>
<circle opacity="0.2" cx="139" cy="43" r="3" fill="#002B47"/>
<circle opacity="0.2" cx="139" cy="33" r="3" fill="#002B47"/>
</g>
<defs>
<clipPath id="clip0_9289_222">
<rect width="152" height="149" fill="white"/>
</clipPath>
</defs>
</svg>
