<svg width="200" height="200" viewBox="0 0 200 200" fill="none" xmlns="http://www.w3.org/2000/svg">
<ellipse cx="6.345" cy="6.34647" rx="6.345" ry="6.34647" transform="matrix(-0.33555 -0.942022 0.928344 -0.371723 18.2581 93.64)" fill="#005B84"/>
<ellipse cx="1.905" cy="1.90394" rx="1.905" ry="1.90394" transform="matrix(-0.33555 -0.942022 0.928344 -0.371723 40.1484 38.1431)" fill="#7AA5C1"/>
<ellipse cx="1.905" cy="1.90394" rx="1.905" ry="1.90394" transform="matrix(-0.33555 -0.942022 0.928344 -0.371723 21.6758 42.9777)" fill="#005B84"/>
<ellipse cx="3.175" cy="3.17323" rx="3.175" ry="3.17323" transform="matrix(-0.33555 -0.942022 0.928344 -0.371723 32.3648 55.5057)" fill="#005B84"/>
<ellipse cx="5.13045" cy="5.12854" rx="5.13045" ry="5.12854" transform="matrix(-0.992706 -0.120557 0.107408 -0.994215 38.0605 73.8416)" fill="#7AA5C1"/>
<ellipse cx="4.005" cy="4.00351" rx="4.005" ry="4.00351" transform="matrix(-0.992706 -0.120557 0.107408 -0.994215 184.634 143.223)" fill="#7AA5C1"/>
<ellipse cx="2" cy="2.00175" rx="2" ry="2.00175" transform="matrix(-0.992706 -0.120557 0.107408 -0.994215 37.1605 93.3579)" fill="#005B84"/>
<ellipse cx="2" cy="2.00175" rx="2" ry="2.00175" transform="matrix(-0.992706 -0.120557 0.107408 -0.994215 181.969 125.157)" fill="#005B84"/>
<ellipse cx="5.93" cy="5.92975" rx="5.93" ry="5.92975" transform="matrix(0.859722 0.510762 -0.467259 0.88412 110.349 140.964)" fill="#005B84"/>
<ellipse cx="2.635" cy="2.63545" rx="2.635" ry="2.63545" transform="matrix(0.859722 0.510762 -0.467259 0.88412 101.271 159.964)" fill="#005B84"/>
<ellipse cx="1.32" cy="1.31772" rx="1.32" ry="1.31772" transform="matrix(0.859722 0.510762 -0.467259 0.88412 121.039 161.964)" fill="#7AA5C1"/>
<ellipse cx="1.895" cy="1.89489" rx="1.895" ry="1.89489" transform="matrix(-0.205532 0.97865 -0.973246 -0.229767 172.376 133.366)" fill="#7AA5C1"/>
<ellipse cx="1.265" cy="1.26326" rx="1.265" ry="1.26326" transform="matrix(-0.205532 0.97865 -0.973246 -0.229767 132.525 145.094)" fill="#005B84"/>
<ellipse cx="3.79" cy="3.78978" rx="3.79" ry="3.78978" transform="matrix(-0.205532 0.97865 -0.973246 -0.229767 149.874 152.933)" fill="#005B84"/>
<rect width="84" height="53" rx="15" transform="matrix(-1 0 0 1 98.8079 101.964)" fill="#7AB9D5"/>
<path d="M31.4443 154.964H47.8079L17.8079 168.964L31.4443 154.964Z" fill="#7AB9D5"/>
<rect x="44.209" y="31" width="130.654" height="101.079" rx="22" fill="#005288"/>
<path d="M144.042 126.4L119.335 128.671L162.887 154.793L144.042 126.4Z" fill="#005288"/>
<path d="M125.961 48.0146L97.475 45.7643L101.13 91.5845L114.803 92.6646L125.961 48.0146Z" fill="white"/>
<rect width="12.7" height="13.0086" transform="matrix(0.996894 0.0787495 -0.0700995 0.99754 101.721 98.7083)" fill="white"/>
</svg>
