<svg width="200" height="200" viewBox="0 0 200 200" fill="none" xmlns="http://www.w3.org/2000/svg">
<g clip-path="url(#clip0_9286_557)">
<circle cx="67.5" cy="26.5" r="5.5" fill="#005B84"/>
<circle cx="158" cy="160" r="5" fill="#005B84"/>
<circle cx="136" cy="166" r="3" fill="#7AA5C1"/>
<circle cx="169" cy="75" r="5" fill="#005B84"/>
<circle cx="128.5" cy="179.5" r="1.5" fill="#005B84"/>
<circle cx="97" cy="173" r="2" fill="#005B84"/>
<circle cx="108.5" cy="175.5" r="0.5" fill="#005B84"/>
<circle cx="18.5" cy="138.5" r="3.5" fill="#005B84"/>
<circle cx="30.5" cy="81.5" r="4.5" fill="#005B84"/>
<circle cx="179.5" cy="79.5" r="1.5" fill="#7AA5C1"/>
<circle cx="17" cy="103" r="2" fill="#D6E9F2"/>
<circle cx="161.5" cy="138.5" r="1.5" fill="#005B84"/>
<circle cx="173.5" cy="89.5" r="1.5" fill="#005B84"/>
<circle cx="171.5" cy="59.5" r="1.5" fill="#005B84"/>
<circle cx="135.5" cy="20.5" r="1.5" fill="#7AA5C1"/>
<circle cx="169.5" cy="146.5" r="1.5" fill="#005B84"/>
<circle cx="29.5" cy="163.5" r="1.5" fill="#005B84"/>
<circle cx="172" cy="107" r="2" fill="#005B84"/>
<circle cx="181.5" cy="96.5" r="2.5" fill="#005B84"/>
<circle cx="25" cy="116" r="1" fill="#7AA5C1"/>
<circle cx="43" cy="160" r="1" fill="#005B84"/>
<circle cx="43" cy="66" r="1" fill="#D6E9F2"/>
<circle cx="20" cy="61" r="1" fill="#7AA5C1"/>
<circle cx="79" cy="17" r="1" fill="#005B84"/>
<circle cx="60.5" cy="43.5" r="0.5" fill="#005B84"/>
<circle cx="172" cy="122" r="1" fill="#005B84"/>
<circle cx="104.5" cy="30.5" r="0.5" fill="#005B84"/>
<circle cx="158" cy="60" r="1" fill="#005B84"/>
<circle cx="138" cy="34" r="1" fill="#005B84"/>
<circle cx="86.5" cy="27.5" r="2.5" fill="#005B84"/>
<circle cx="98.5" cy="17.5" r="0.5" fill="#005B84"/>
<circle cx="37.5" cy="39.5" r="1.5" fill="#005B84"/>
<circle cx="150" cy="46" r="1" fill="#005B84"/>
<circle cx="47" cy="32" r="1" fill="#7AA5C1"/>
<circle cx="30" cy="100" r="1" fill="#7AA5C1"/>
<circle cx="43" cy="51" r="3" fill="#005B84"/>
<circle cx="159" cy="38" r="3" fill="#005B84"/>
<circle cx="84" cy="180" r="4" fill="#005B84"/>
<circle cx="116" cy="26" r="3" fill="#005B84"/>
<circle cx="182" cy="138" r="3" fill="#D6E9F2"/>
<path d="M101.649 37.8955C134.904 38.3328 161.733 66.4257 161.733 101.016L161.729 101.831C161.307 136.318 134.218 164.139 100.862 164.14L100.075 164.135C67.0816 163.701 40.414 136.046 39.9961 101.831L39.9912 101.016C39.9914 66.1531 67.2443 37.8906 100.862 37.8906L101.649 37.8955ZM75.2754 133.008C74.2026 133.722 73.2015 134.449 72.2725 135.177C69.0166 137.728 66.6337 140.276 65.0723 142.175C64.3911 143.003 63.8688 143.706 63.5 144.228C71.6738 151.874 82.0166 157.04 93.4121 158.624C90.795 156.405 87.6437 153.318 84.499 149.233C81.2018 144.95 77.9251 139.587 75.2754 133.008ZM126.582 131.423C123.921 138.83 120.475 144.759 117.001 149.398C114.009 153.394 111.008 156.416 108.5 158.598C120.051 156.95 130.512 151.621 138.717 143.761C138.439 143.283 138.07 142.682 137.601 141.993C136.326 140.121 134.329 137.605 131.471 135.085C130.062 133.843 128.438 132.596 126.582 131.423ZM103.427 156.309C103.552 156.21 103.68 156.11 103.811 156.006C106.296 154.011 109.642 150.884 112.999 146.401C116.291 142.005 119.61 136.281 122.135 129.002C117.206 126.716 111.043 125.086 103.427 124.986V156.309ZM98.4268 125.144C90.9027 125.726 84.6698 127.812 79.6328 130.434C82.1559 136.907 85.3191 142.102 88.4609 146.184C91.9462 150.711 95.4227 153.89 98.0088 155.927C98.15 156.038 98.291 156.143 98.4268 156.247V125.144ZM45.0439 103.541C45.6312 117.881 51.1951 130.821 59.9531 140.603C60.3049 140.131 60.7231 139.591 61.21 138.999C62.9584 136.873 65.5967 134.055 69.1885 131.241C70.5049 130.21 71.9496 129.179 73.5244 128.184C71.2581 121.2 69.7267 113.028 69.4922 103.541H45.0439ZM131.475 103.541C131.288 112.298 130.041 119.925 128.157 126.527C130.702 128.033 132.899 129.68 134.776 131.334C138.004 134.179 140.269 137.028 141.733 139.18C141.933 139.472 142.116 139.753 142.286 140.019C150.747 130.309 156.105 117.597 156.681 103.541H131.475ZM74.4932 103.541C74.714 112.033 76.0281 119.369 77.9717 125.665C83.5152 122.877 90.3097 120.702 98.4268 120.128V103.541H74.4932ZM103.427 119.982C111.517 120.079 118.188 121.765 123.619 124.186C125.231 118.235 126.298 111.385 126.474 103.541H103.427V119.982ZM60.6973 60.6123C51.5002 70.4958 45.6344 83.7785 45.042 98.541H69.4893C69.7299 88.3769 71.4589 79.7208 73.9863 72.417C72.3549 71.4805 70.8789 70.5058 69.5518 69.5254C66.147 67.01 63.7398 64.484 62.1719 62.5654C61.5537 61.809 61.066 61.1446 60.6973 60.6123ZM78.4922 74.6963C76.2563 81.3672 74.7213 89.2653 74.4902 98.541H98.4268V79.3701C90.3867 78.8642 83.8034 77.0507 78.4922 74.6963ZM141.928 61.6045C141.781 61.8436 141.623 62.096 141.45 62.3584C140.163 64.3124 138.122 66.879 135.071 69.4316C133.053 71.12 130.609 72.784 127.678 74.2617C129.799 81.1663 131.232 89.2191 131.465 98.541H156.683C156.11 84.2668 150.606 71.3765 141.928 61.6045ZM123.059 76.2598C117.817 78.1811 111.352 79.4656 103.427 79.5098V98.541H126.464C126.239 89.9808 124.953 82.593 123.059 76.2598ZM103.427 74.5098C110.831 74.4657 116.751 73.2632 121.459 71.5205C119.031 65.0714 116.001 59.8913 112.99 55.8203C109.63 51.2776 106.28 48.0908 103.791 46.0518C103.668 45.9511 103.545 45.8558 103.427 45.7607V74.5098ZM98.0078 46.0703C95.4219 48.1045 91.945 51.2803 88.46 55.8047C85.5712 59.5549 82.6665 64.2479 80.2559 70.0098C85.0188 72.1575 91.0075 73.8551 98.4268 74.3584V45.749C98.2906 45.8536 98.1495 45.9589 98.0078 46.0703ZM108.41 43.4189C110.937 45.6473 113.977 48.7466 117.01 52.8467C120.246 57.2226 123.46 62.7202 126.036 69.4834C128.358 68.2575 130.282 66.92 131.862 65.5977C134.488 63.4009 136.215 61.2167 137.274 59.6084C137.739 58.9028 138.074 58.3076 138.301 57.874C130.139 50.2102 119.802 45.024 108.41 43.4189ZM93.3623 43.4121C82.3694 44.9507 72.3568 49.8227 64.3301 57.0391C64.3948 57.1435 64.4805 57.282 64.5908 57.4482C64.8939 57.9047 65.3727 58.58 66.0439 59.4014C67.3874 61.0452 69.4992 63.2697 72.5234 65.5039C73.5146 66.2361 74.6074 66.9699 75.8057 67.6875C78.3555 61.6931 81.419 56.7526 84.499 52.7539C87.6239 48.6971 90.7548 45.6256 93.3623 43.4121Z" fill="#005288"/>
<path d="M32.6773 126.646L29.9227 132.614L40.9409 145.009L24.4136 161.536L21.6591 172.555L36.8091 187.246L59.3045 167.046L70.7818 175.768L73.5364 164.75L87.3091 114.709L32.6773 126.646Z" fill="white"/>
<path fill-rule="evenodd" clip-rule="evenodd" d="M76.0954 168.378L71.7503 179.826L59.2441 169.109L36.2646 190.748L19.1679 172.593L22.4737 158.741L36.7878 145.262L25.7176 133.506L31.5293 124.551L90.3062 111.327L76.0954 168.378ZM24.2836 171.448L34.3678 182.156L36.5681 173.708L26.4808 162.996L24.2836 171.448ZM41.3271 173.919L39.405 181.307L56.6493 165.068L56.6895 159.452L41.3271 173.919ZM38.8679 127.366L50.0581 139.249L28.9925 159.086L38.9566 169.667L60.0222 149.83L71.9931 162.542L83.8977 117.362L38.8679 127.366ZM61.2629 164.675L68.2123 171.539L69.1301 165.91L61.3123 157.777L61.2629 164.675ZM31.3326 132.891L40.0706 142.17L43.5393 138.904L33.9671 128.739L31.3326 132.891Z" fill="#7AB9D5"/>
</g>
<defs>
<clipPath id="clip0_9286_557">
<rect width="200" height="200" fill="white"/>
</clipPath>
</defs>
</svg>
