<svg width="44" height="44" viewBox="0 0 44 44" fill="none" xmlns="http://www.w3.org/2000/svg">
<circle cx="22" cy="22" r="20.5" fill="#7AB9D5" stroke="#F5F8FA" stroke-width="3"/>
<path fill-rule="evenodd" clip-rule="evenodd" d="M28.3674 18.3329L23.0141 10.3151C22.7818 9.97287 22.3907 9.80176 21.9996 9.80176C21.6085 9.80176 21.2174 9.97287 20.9852 10.3273L15.6318 18.3329H9.7774C9.10518 18.3329 8.55518 18.8829 8.55518 19.5551C8.55518 19.6651 8.5674 19.7751 8.60406 19.8851L11.7085 31.2151C11.9896 32.2418 12.9307 32.9995 14.0552 32.9995H29.9441C31.0685 32.9995 32.0096 32.2418 32.303 31.2151L35.4074 19.8851L35.4441 19.5551C35.4441 18.8829 34.8941 18.3329 34.2218 18.3329H28.3674ZM18.333 18.3329L21.9996 12.9551L25.6663 18.3329H18.333ZM21.9996 28.1106C20.6552 28.1106 19.5552 27.0106 19.5552 25.6662C19.5552 24.3218 20.6552 23.2218 21.9996 23.2218C23.3441 23.2218 24.4441 24.3218 24.4441 25.6662C24.4441 27.0106 23.3441 28.1106 21.9996 28.1106Z" fill="#002B47"/>
</svg>
