<svg width="44" height="44" viewBox="0 0 44 44" fill="none" xmlns="http://www.w3.org/2000/svg">
<circle cx="22" cy="22" r="22" fill="#7AB9D5"/>
<path fill-rule="evenodd" clip-rule="evenodd" d="M28.3674 18.3334L23.0141 10.3156C22.7818 9.97336 22.3907 9.80225 21.9996 9.80225C21.6085 9.80225 21.2174 9.97336 20.9852 10.3278L15.6318 18.3334H9.7774C9.10518 18.3334 8.55518 18.8834 8.55518 19.5556C8.55518 19.6656 8.5674 19.7756 8.60406 19.8856L11.7085 31.2156C11.9896 32.2422 12.9307 33 14.0552 33H29.9441C31.0685 33 32.0096 32.2422 32.303 31.2156L35.4074 19.8856L35.4441 19.5556C35.4441 18.8834 34.8941 18.3334 34.2218 18.3334H28.3674ZM18.333 18.3334L21.9996 12.9556L25.6663 18.3334H18.333ZM21.9996 28.1111C20.6552 28.1111 19.5552 27.0111 19.5552 25.6667C19.5552 24.3222 20.6552 23.2222 21.9996 23.2222C23.3441 23.2222 24.4441 24.3222 24.4441 25.6667C24.4441 27.0111 23.3441 28.1111 21.9996 28.1111Z" fill="#002B47"/>
</svg>
