<svg width="226" height="229" viewBox="0 0 226 229" fill="none" xmlns="http://www.w3.org/2000/svg">
<path d="M0 144.326L113.15 109.119L225.304 140.978L113.15 228.5L0 144.326Z" fill="#7AB9D5"/>
<path d="M110 152.312C110 152.312 108.434 151.3 107.277 151.047C104.265 150.388 100.017 154 100.017 154C100.017 154 101.284 147.654 103.647 144.297C105.226 142.053 108.639 139.234 108.639 139.234C108.639 139.234 103.041 141.737 100.924 144.297C98.8078 146.857 97.7479 151.469 97.7479 151.469L97.2941 143.453L91.395 151.047L93.2101 140.922L88.2185 153.578C88.2185 153.578 86.0988 145.5 88.2185 140.078C90.2892 134.782 97.2941 127.844 97.2941 127.844C97.2941 127.844 87.7738 132.664 84.5882 137.969C81.5208 143.077 81.8655 152.734 81.8655 152.734C81.8655 152.734 79.9157 146.295 80.0504 143.453C80.1851 140.612 80.958 138.391 80.958 138.391C80.958 138.391 77.4975 143.136 76.8739 145.562C76.2504 147.989 76.4202 150.203 76.4202 150.203L74.605 141.344L70.9748 148.516L68.7059 127C68.7059 127 65.7158 138.378 65.5294 143.453C65.343 148.528 65.9832 152.734 65.9832 152.734L62.8067 141.766L61.8992 150.625L56 142.188L56.4538 152.312" stroke="#D6E9F2" stroke-width="2"/>
<rect x="40" y="14" width="146" height="87" rx="2" fill="#005B84"/>
<rect x="99" width="28" height="173" fill="#005B84"/>
<path d="M116 171.312C116 171.312 117.566 170.3 118.723 170.047C121.735 169.388 125.983 173 125.983 173C125.983 173 124.716 166.654 122.353 163.297C120.774 161.053 117.361 158.234 117.361 158.234C117.361 158.234 122.959 160.737 125.076 163.297C127.192 165.857 128.252 170.469 128.252 170.469L128.706 162.453L134.605 170.047L132.79 159.922L137.782 172.578C137.782 172.578 139.901 164.5 137.782 159.078C135.711 153.782 128.706 146.844 128.706 146.844C128.706 146.844 138.226 151.664 141.412 156.969C144.479 162.077 144.134 171.734 144.134 171.734C144.134 171.734 146.084 165.295 145.95 162.453C145.815 159.612 145.042 157.391 145.042 157.391C145.042 157.391 148.503 162.136 149.126 164.562C149.75 166.989 149.58 169.203 149.58 169.203L151.395 160.344L155.025 167.516L157.294 146C157.294 146 160.284 157.378 160.471 162.453C160.657 167.528 160.017 171.734 160.017 171.734L163.193 160.766L164.101 169.625L170 161.188L169.546 171.312" stroke="#D6E9F2" stroke-width="2"/>
<g clip-path="url(#clip0_12183_1709)">
<path d="M65 60.4936H72.1675V67.5178H65V60.4936ZM85.8874 72.0201C86.6129 72.6329 87.835 72.9394 89.554 72.9394C91.9826 72.9394 93.607 72.1301 94.4269 70.5115C94.9633 69.4744 95.2313 67.73 95.2313 65.2786V63.6285C94.5847 64.7287 93.8907 65.5536 93.1496 66.1037C91.8092 67.125 90.0666 67.6357 87.9217 67.6357C84.6101 67.6357 81.9607 66.4808 79.9737 64.1707C78.0024 61.845 77.0168 58.7022 77.0168 54.7422C77.0168 50.9236 77.9709 47.7179 79.8791 45.1251C81.7873 42.5165 84.4918 41.2122 87.9928 41.2122C89.286 41.2122 90.4134 41.4086 91.3754 41.8015C93.0155 42.4772 94.3402 43.7186 95.3496 45.5258V41.8251H101.902V66.1978C101.902 69.5135 101.342 72.0122 100.222 73.6937C98.2985 76.5851 94.6083 78.0307 89.1518 78.0307C85.8559 78.0307 83.1671 77.3865 81.0855 76.0979C79.0038 74.8093 77.8526 72.8844 77.6318 70.3228H84.9649C85.1542 71.1086 85.4616 71.6743 85.8874 72.0201ZM84.752 58.7493C85.6668 60.9179 87.3068 62.0022 89.6723 62.0022C91.2492 62.0022 92.5819 61.413 93.6701 60.2343C94.7581 59.0401 95.3022 57.1465 95.3022 54.5536C95.3022 52.1179 94.7819 50.2636 93.7409 48.9908C92.7158 47.7179 91.3361 47.0815 89.6013 47.0815C87.2358 47.0815 85.6037 48.1893 84.7047 50.4051C84.2316 51.5836 83.9951 53.0372 83.9951 54.7658C83.9951 56.2586 84.2474 57.5865 84.752 58.7493ZM129.72 45.0779C131.897 47.7965 132.985 51.0101 132.985 54.7186C132.985 58.49 131.897 61.7193 129.72 64.4064C127.544 67.0779 124.24 68.4136 119.809 68.4136C115.378 68.4136 112.074 67.0779 109.897 64.4064C107.721 61.7193 106.633 58.49 106.633 54.7186C106.633 51.0101 107.721 47.7965 109.897 45.0779C112.074 42.3593 115.378 41.0001 119.809 41.0001C124.24 41.0001 127.544 42.3593 129.72 45.0779ZM119.785 46.6808C117.814 46.6808 116.292 47.3801 115.22 48.7786C114.163 50.1615 113.635 52.1415 113.635 54.7186C113.635 57.2958 114.163 59.2836 115.22 60.6822C116.292 62.0807 117.814 62.7801 119.785 62.7801C121.757 62.7801 123.27 62.0807 124.327 60.6822C125.384 59.2836 125.912 57.2958 125.912 54.7186C125.912 52.1415 125.384 50.1615 124.327 48.7786C123.27 47.3801 121.757 46.6808 119.785 46.6808ZM134.334 41.8251H141.904L147.273 60.7765L152.761 41.8251H160L150.704 67.5178H143.583L134.334 41.8251Z" fill="#F5F8FA"/>
</g>
<defs>
<clipPath id="clip0_12183_1709">
<rect width="105" height="41" fill="white" transform="translate(60 37)"/>
</clipPath>
</defs>
</svg>
