<svg width="212" height="178" viewBox="0 0 212 178" fill="none" xmlns="http://www.w3.org/2000/svg">
<circle cx="122" cy="89" r="89" fill="#D6E9F2"/>
<path d="M197 89.355C197 133.709 164.153 169.355 124 169.355C83.8474 169.355 51 133.709 51 89.355C51 45.0005 83.8474 9.35498 124 9.35498C164.153 9.35498 197 45.0005 197 89.355Z" stroke="#7AB9D5" stroke-width="4"/>
<path d="M143 89.355C143 111.881 140.66 132.207 136.912 146.842C135.034 154.174 132.831 159.965 130.463 163.875C128.023 167.906 125.779 169.355 124 169.355C122.221 169.355 119.977 167.906 117.537 163.875C115.169 159.965 112.966 154.174 111.088 146.842C107.34 132.207 105 111.881 105 89.355C105 66.8285 107.34 46.5031 111.088 31.8684C112.966 24.5359 115.169 18.7449 117.537 14.8348C119.977 10.8042 122.221 9.35498 124 9.35498C125.779 9.35498 128.023 10.8042 130.463 14.8348C132.831 18.7449 135.034 24.5359 136.912 31.8684C140.66 46.5031 143 66.8285 143 89.355Z" stroke="#7AB9D5" stroke-width="4"/>
<path d="M140.654 59.803C164.854 75.6672 184.43 93.4329 196.534 109.272C202.592 117.199 206.709 124.553 208.644 130.872C210.583 137.205 210.254 142.205 207.905 145.788C205.556 149.371 201.103 151.668 194.521 152.415C187.955 153.161 179.569 152.319 169.884 149.926C150.531 145.144 126.432 134.279 102.231 118.415C78.0311 102.551 58.4554 84.785 46.3512 68.9462C40.2932 61.0192 36.1764 53.6653 34.2413 47.3463C32.3017 41.0126 32.6315 36.0128 34.9802 32.4299C37.3288 28.8471 41.7821 26.5504 48.3639 25.8027C54.9303 25.0568 63.3159 25.8986 73.0015 28.2919C92.3537 33.074 116.453 43.9388 140.654 59.803Z" stroke="#7AB9D5" stroke-width="4"/>
<path d="M89.8485 54.7084C109.379 34.3527 130.97 19.8118 150.016 12.7054C169.209 5.54403 185.12 6.1462 194.138 14.7992C203.157 23.4522 204.417 39.3241 198.056 58.7973C191.744 78.1208 178.109 100.295 158.578 120.651C139.048 141.007 117.457 155.548 98.4111 162.654C79.2178 169.815 63.3074 169.213 54.2887 160.56C45.2699 151.907 44.0099 136.035 50.371 116.562C56.6833 97.2386 70.3184 75.0641 89.8485 54.7084Z" stroke="#7AB9D5" stroke-width="4"/>
<circle cx="100" cy="13.3545" r="6" fill="#005B84"/>
<circle cx="81" cy="102.354" r="6" fill="#005B84"/>
<circle r="3" transform="matrix(1 0 0 -1 145 166.354)" fill="#005B84"/>
<circle r="3" transform="matrix(1 0 0 -1 51 89.3545)" fill="#005B84"/>
<circle r="3" transform="matrix(1 0 0 -1 61 47.3545)" fill="#005B84"/>
<circle r="4" transform="matrix(1 0 0 -1 142 115.354)" fill="#005B84"/>
<circle r="3.5" transform="matrix(1 0 0 -1 138.5 41.8545)" fill="#005B84"/>
<circle r="4" transform="matrix(1 0 0 -1 83 154.354)" fill="#005B84"/>
<circle cx="106" cy="64.3545" r="5" fill="#005B84"/>
<circle cx="166" cy="24.3545" r="4" fill="#005B84"/>
<circle r="3" transform="matrix(1 0 0 -1 52 158.354)" fill="#005B84"/>
<circle cx="160" cy="75.3545" r="6" fill="#005B84"/>
<circle cx="27" cy="27" r="27" fill="#7AB9D5"/>
<path d="M7.6 33.288C8.824 33.288 9.736 32.328 9.736 31.08C9.736 29.808 8.824 28.848 7.6 28.848C6.376 28.848 5.464 29.808 5.464 31.08C5.464 32.328 6.376 33.288 7.6 33.288ZM17.0033 38.064C21.0833 38.064 23.6513 36.264 23.6513 33.792C23.6513 31.656 22.0433 30.768 19.1153 30.768H17.1953C15.8753 30.768 15.3953 30.48 15.3953 29.88C15.3953 29.472 15.5153 29.256 15.8273 28.992C16.3553 29.16 16.8353 29.232 17.2673 29.232C19.8833 29.232 21.9473 27.96 21.9473 25.224C21.9473 24.6 21.7793 24.024 21.5633 23.664H23.4593V21.096H19.1153C18.5873 20.904 17.9393 20.808 17.2673 20.808C14.6993 20.808 12.3473 22.248 12.3473 25.104C12.3473 26.496 13.1153 27.624 13.9553 28.2V28.296C13.1873 28.824 12.6113 29.664 12.6113 30.528C12.6113 31.512 13.0913 32.136 13.7153 32.544V32.64C12.6113 33.264 12.0113 34.056 12.0113 35.04C12.0113 37.152 14.2193 38.064 17.0033 38.064ZM17.2673 27.096C16.3313 27.096 15.6353 26.424 15.6353 25.104C15.6353 23.832 16.3313 23.184 17.2673 23.184C18.2033 23.184 18.8993 23.856 18.8993 25.104C18.8993 26.424 18.2033 27.096 17.2673 27.096ZM17.5553 35.856C15.9713 35.856 14.9153 35.376 14.9153 34.488C14.9153 34.056 15.1313 33.696 15.5633 33.312C15.9473 33.408 16.4273 33.456 17.2433 33.456H18.4673C19.6433 33.456 20.2913 33.648 20.2913 34.392C20.2913 35.208 19.1393 35.856 17.5553 35.856ZM30.2658 33.288C33.2658 33.288 36.0498 31.008 36.0498 27.048C36.0498 23.088 33.2658 20.808 30.2658 20.808C27.2418 20.808 24.4578 23.088 24.4578 27.048C24.4578 31.008 27.2418 33.288 30.2658 33.288ZM30.2658 30.432C28.8018 30.432 28.0818 29.112 28.0818 27.048C28.0818 24.984 28.8018 23.664 30.2658 23.664C31.7058 23.664 32.4498 24.984 32.4498 27.048C32.4498 29.112 31.7058 30.432 30.2658 30.432ZM41.0148 33H45.0948L48.9828 21.096H45.5988L44.0388 26.712C43.7268 27.888 43.4148 29.136 43.1268 30.384H43.0308C42.7188 29.136 42.4068 27.888 42.0948 26.712L40.5588 21.096H37.0068L41.0148 33Z" fill="#002B47"/>
</svg>
