<svg width="377" height="214" viewBox="0 0 377 214" fill="none" xmlns="http://www.w3.org/2000/svg">
<path opacity="0.25" d="M375.598 105.141C375.598 128.637 368.447 146.853 343.792 163.745C311.597 185.802 306.922 220.958 208.933 212.794C153.546 197.488 112.985 192.339 82.3431 170.115C57.0728 151.786 39.0864 134.087 39.0864 109.6C39.0864 72.6792 65.5028 55.5338 110.624 37.7804C139.184 26.5432 233.854 0 271.44 0C368.405 0 381.893 73.8435 375.598 105.141Z" fill="#7AB9D5"/>
<path d="M95.9287 22.5252C95.9287 16.6877 100.661 11.9556 106.498 11.9556H331.359C337.197 11.9556 341.929 16.6877 341.929 22.5252V32.9556H95.9287V22.5252Z" fill="#005B84"/>
<path d="M95.9287 32.9556H341.929V52.9556H95.9287V32.9556Z" fill="#3D98C1"/>
<path d="M119.956 41.7249C119.647 41.7249 119.397 41.9754 119.397 42.2844C119.397 42.5934 119.647 42.844 119.956 42.844V41.7249ZM127.905 42.6801C128.124 42.4616 128.124 42.1073 127.905 41.8888L124.345 38.328C124.126 38.1095 123.772 38.1095 123.553 38.328C123.335 38.5465 123.335 38.9008 123.553 39.1193L126.718 42.2844L123.553 45.4496C123.335 45.6681 123.335 46.0224 123.553 46.2409C123.772 46.4594 124.126 46.4594 124.345 46.2409L127.905 42.6801ZM119.956 42.844H127.51V41.7249H119.956V42.844Z" fill="#D6E9F2"/>
<path d="M110.724 42.844C111.033 42.844 111.283 42.5934 111.283 42.2844C111.283 41.9754 111.033 41.7249 110.724 41.7249L110.724 42.844ZM102.774 41.8888C102.556 42.1073 102.556 42.4616 102.774 42.6801L106.335 46.2409C106.554 46.4594 106.908 46.4594 107.126 46.2409C107.345 46.0224 107.345 45.6681 107.126 45.4496L103.961 42.2844L107.126 39.1193C107.345 38.9008 107.345 38.5465 107.126 38.328C106.908 38.1095 106.554 38.1095 106.335 38.328L102.774 41.8888ZM110.724 41.7249L103.17 41.7249L103.17 42.844L110.724 42.844L110.724 41.7249Z" fill="#D6E9F2"/>
<path d="M145.435 40.3964C145.145 39.6308 144.652 38.9653 144.021 38.4656C143.255 37.8589 142.286 37.4966 141.233 37.4966C138.752 37.4966 136.741 39.5078 136.741 41.9889C136.741 44.4699 138.752 46.4812 141.233 46.4812C143.322 46.4812 145.078 45.0554 145.581 43.124" stroke="#D6E9F2" stroke-width="1.11905"/>
<path d="M145.955 41.7937L141.777 39.3812L145.955 36.9688L145.955 41.7937Z" fill="#D6E9F2"/>
<path opacity="0.6" d="M152.272 41.7249C152.272 38.5143 154.875 35.9116 158.086 35.9116H306.06C309.271 35.9116 311.873 38.5143 311.873 41.7249C311.873 44.9355 309.271 47.5382 306.06 47.5382H158.086C154.875 47.5382 152.272 44.9355 152.272 41.7249Z" fill="#D6E9F2"/>
<path opacity="0.7" d="M224.086 74.5C224.086 70.0817 227.668 66.5 232.086 66.5H320.086C324.505 66.5 328.086 70.0817 328.086 74.5V185.5C328.086 189.918 324.505 193.5 320.086 193.5H232.086C227.668 193.5 224.086 189.918 224.086 185.5V74.5Z" fill="#3D98C1"/>
<path opacity="0.7" d="M111.086 74.5C111.086 70.0817 114.668 66.5 119.086 66.5H207.086C211.505 66.5 215.086 70.0817 215.086 74.5V132.5C215.086 136.918 211.505 140.5 207.086 140.5H119.086C114.668 140.5 111.086 136.918 111.086 132.5V74.5Z" fill="#3D98C1"/>
<path opacity="0.7" d="M111.086 159.5C111.086 155.082 114.668 151.5 119.086 151.5H207.086C211.505 151.5 215.086 155.082 215.086 159.5V186.5C215.086 190.918 211.505 194.5 207.086 194.5H119.086C114.668 194.5 111.086 190.918 111.086 186.5V159.5Z" fill="#3D98C1"/>
<path opacity="0.7" d="M95.9287 52.9556H341.929V198.386C341.929 204.223 337.197 208.956 331.359 208.956H106.498C100.661 208.956 95.9287 204.223 95.9287 198.386V52.9556Z" fill="#7AB9D5"/>
<rect x="27.7112" y="88.782" width="268.646" height="35.0937" rx="17.5468" fill="#002B47" stroke="#002B47" stroke-width="1.24951"/>
<rect x="35.2083" y="82.7239" width="266.147" height="35.0937" rx="17.5468" fill="white" stroke="#7AB9D5" stroke-width="1.24951"/>
<path d="M152.976 108.626C151.637 108.626 150.64 107.577 150.64 106.212C150.64 104.821 151.637 103.772 152.976 103.772C154.314 103.772 155.311 104.821 155.311 106.212C155.311 107.577 154.314 108.626 152.976 108.626ZM163.256 113.848C160.213 113.848 157.799 112.851 157.799 110.542C157.799 109.466 158.455 108.6 159.662 107.918V107.813C158.979 107.367 158.455 106.684 158.455 105.609C158.455 104.664 159.084 103.746 159.924 103.168V103.063C159.006 102.434 158.166 101.2 158.166 99.6784C158.166 96.5558 160.737 94.9815 163.545 94.9815C164.28 94.9815 164.988 95.0864 165.566 95.2963H170.315V98.104H168.242C168.478 98.4976 168.662 99.1273 168.662 99.8096C168.662 102.801 166.405 104.192 163.545 104.192C163.073 104.192 162.548 104.113 161.971 103.929C161.63 104.218 161.498 104.454 161.498 104.9C161.498 105.556 162.023 105.871 163.466 105.871H165.566C168.767 105.871 170.525 106.842 170.525 109.177C170.525 111.88 167.717 113.848 163.256 113.848ZM163.545 101.856C164.568 101.856 165.329 101.122 165.329 99.6784C165.329 98.3139 164.568 97.5792 163.545 97.5792C162.522 97.5792 161.761 98.2877 161.761 99.6784C161.761 101.122 162.522 101.856 163.545 101.856ZM163.86 111.434C165.592 111.434 166.851 110.725 166.851 109.833C166.851 109.02 166.143 108.81 164.857 108.81H163.519C162.627 108.81 162.102 108.757 161.682 108.652C161.21 109.072 160.974 109.466 160.974 109.938C160.974 110.909 162.128 111.434 163.86 111.434ZM177.757 108.626C174.45 108.626 171.407 106.133 171.407 101.804C171.407 97.4742 174.45 94.9815 177.757 94.9815C181.037 94.9815 184.08 97.4742 184.08 101.804C184.08 106.133 181.037 108.626 177.757 108.626ZM177.757 105.504C179.331 105.504 180.144 104.06 180.144 101.804C180.144 99.5472 179.331 98.104 177.757 98.104C176.156 98.104 175.369 99.5472 175.369 101.804C175.369 104.06 176.156 105.504 177.757 105.504ZM189.509 108.311L185.127 95.2963H189.01L190.689 101.436C191.031 102.722 191.372 104.087 191.713 105.451H191.818C192.133 104.087 192.474 102.722 192.815 101.436L194.521 95.2963H198.22L193.969 108.311H189.509Z" fill="#002B47"/>
<path d="M52.2274 113.402C51.4402 113.402 50.9154 113.297 50.3906 113.139L51.0728 110.201C51.309 110.253 51.6501 110.358 51.9388 110.358C53.2245 110.358 53.8805 109.676 54.2216 108.652L54.4053 107.97L49.3935 95.2963H53.277L55.14 100.885C55.5074 102.066 55.8222 103.299 56.1634 104.585H56.2683C56.557 103.352 56.8456 102.119 57.1605 100.885L58.7349 95.2963H62.4347L57.9214 108.442C56.6882 111.722 55.2974 113.402 52.2274 113.402ZM69.8519 108.626C66.5457 108.626 63.5019 106.133 63.5019 101.804C63.5019 97.4742 66.5457 94.9815 69.8519 94.9815C73.1319 94.9815 76.1757 97.4742 76.1757 101.804C76.1757 106.133 73.1319 108.626 69.8519 108.626ZM69.8519 105.504C71.4263 105.504 72.2398 104.06 72.2398 101.804C72.2398 99.5472 71.4263 98.104 69.8519 98.104C68.2513 98.104 67.4641 99.5472 67.4641 101.804C67.4641 104.06 68.2513 105.504 69.8519 105.504ZM82.7275 108.626C79.8936 108.626 78.6865 106.632 78.6865 103.378V95.2963H82.5438V102.88C82.5438 104.743 83.0423 105.346 84.1707 105.346C85.1415 105.346 85.7188 104.926 86.4798 103.903V95.2963H90.337V108.311H87.1882L86.8996 106.501H86.8209C85.7188 107.813 84.5118 108.626 82.7275 108.626ZM93.7314 108.311V95.2963H96.8802L97.1426 97.5792H97.2475C98.1921 95.8211 99.6091 94.9815 100.947 94.9815C101.682 94.9815 102.128 95.0864 102.495 95.2439L101.866 98.5763C101.393 98.4451 101 98.3664 100.449 98.3664C99.4779 98.3664 98.2709 98.9961 97.5886 100.754V108.311H93.7314ZM107.812 108.626C106.107 108.626 104.139 107.891 102.827 106.816L104.559 104.402C105.739 105.294 106.815 105.766 107.917 105.766C109.072 105.766 109.57 105.346 109.57 104.664C109.57 103.798 108.258 103.404 106.92 102.88C105.346 102.276 103.535 101.2 103.535 99.0486C103.535 96.6346 105.529 94.9815 108.521 94.9815C110.515 94.9815 112.011 95.7949 113.113 96.6346L111.381 98.9437C110.463 98.2614 109.544 97.8416 108.652 97.8416C107.655 97.8416 107.156 98.209 107.156 98.8649C107.156 99.7046 108.311 100.02 109.649 100.518C111.302 101.122 113.165 102.04 113.165 104.428C113.165 106.789 111.302 108.626 107.812 108.626ZM115.615 108.311V95.2963H119.472V108.311H115.615ZM117.53 93.3808C116.245 93.3808 115.353 92.5936 115.353 91.3604C115.353 90.1533 116.245 89.3399 117.53 89.3399C118.816 89.3399 119.708 90.1533 119.708 91.3604C119.708 92.5936 118.816 93.3808 117.53 93.3808ZM127.879 108.626C124.651 108.626 123.392 106.606 123.392 103.588V98.3139H121.607V95.4538L123.601 95.2963L124.048 91.8327H127.249V95.2963H130.371V98.3139H127.249V103.536C127.249 105.005 127.905 105.609 128.928 105.609C129.348 105.609 129.82 105.477 130.161 105.346L130.765 108.154C130.083 108.364 129.138 108.626 127.879 108.626ZM138.276 108.626C134.55 108.626 131.69 106.107 131.69 101.804C131.69 97.5792 134.707 94.9815 137.83 94.9815C141.529 94.9815 143.366 97.6842 143.366 101.227C143.366 101.909 143.287 102.617 143.209 102.932H135.416C135.757 104.821 137.069 105.687 138.8 105.687C139.771 105.687 140.664 105.399 141.608 104.821L142.894 107.157C141.556 108.075 139.824 108.626 138.276 108.626ZM135.389 100.387H140.086C140.086 98.9437 139.456 97.9203 137.908 97.9203C136.701 97.9203 135.652 98.7338 135.389 100.387Z" fill="#002B47"/>
<rect x="145.292" y="87.1572" width="1.24951" height="24.2288" fill="#565C65"/>
<rect x="316.666" y="75.5989" width="2.39669" height="9.58678" rx="1.19835" transform="rotate(54.8087 316.666 75.5989)" fill="#005288"/>
<rect x="304.768" y="63.896" width="2.39669" height="9.58678" rx="1.19835" transform="rotate(36.8087 304.768 63.896)" fill="#005288"/>
<rect x="327.114" y="106.864" width="2.39669" height="9.58677" rx="1.19835" transform="rotate(90.8087 327.114 106.864)" fill="#005288"/>
<rect x="324.366" y="90.4038" width="2.39669" height="9.58678" rx="1.19835" transform="rotate(72.8087 324.366 90.4038)" fill="#005288"/>
<rect x="11.5435" y="86.3035" width="2.39669" height="9.58678" rx="1.19835" transform="rotate(-60.4689 11.5435 86.3035)" fill="#005288"/>
<rect x="6.0415" y="102.06" width="2.39669" height="9.58678" rx="1.19835" transform="rotate(-78.4689 6.0415 102.06)" fill="#005288"/>
<rect x="21.6426" y="73.0188" width="2.39669" height="9.58678" rx="1.19835" transform="rotate(-42.4689 21.6426 73.0188)" fill="#005288"/>
</svg>
