<svg width="304" height="191" viewBox="0 0 304 191" fill="none" xmlns="http://www.w3.org/2000/svg">
<ellipse cx="155" cy="117.5" rx="137" ry="27.5" fill="#D6E9F2"/>
<path fill-rule="evenodd" clip-rule="evenodd" d="M90.9617 62.0041C92.0686 60.0922 91.416 57.6451 89.5041 56.5382C87.5923 55.4314 85.1452 56.0839 84.0383 57.9958L75.6247 72.5283C72.6076 70.9148 69.1606 69.9999 65.5 69.9999C53.6259 69.9999 44 79.6258 44 91.4999C44 103.374 53.6259 113 65.5 113C77.3741 113 87 103.374 87 91.4999C87 86.2098 85.0894 81.3659 81.9205 77.6206L90.9617 62.0041ZM81.9205 77.6206C80.1695 75.551 78.0342 73.8169 75.6247 72.5283L64.6469 91.49L58.8284 85.6715C57.2663 84.1094 54.7337 84.1094 53.1716 85.6715C51.6095 87.2336 51.6095 89.7663 53.1716 91.3284L62.6716 100.828C63.5503 101.707 64.7875 102.127 66.0197 101.966C67.2519 101.805 68.3391 101.08 68.9617 100.004L81.9205 77.6206Z" fill="#005B84"/>
<path d="M117.904 135.585C136.1 135.585 147.554 127.557 147.554 116.532C147.554 107.006 140.382 103.045 127.323 103.045H118.76C112.873 103.045 110.732 101.761 110.732 99.0848C110.732 97.2651 111.267 96.3018 112.659 95.1243C115.014 95.8736 117.154 96.1947 119.081 96.1947C130.748 96.1947 139.954 90.5216 139.954 78.319C139.954 75.536 139.205 72.967 138.241 71.3614H146.697V59.9082H127.323C124.968 59.0518 122.078 58.6237 119.081 58.6237C107.628 58.6237 97.1379 65.0461 97.1379 77.7838C97.1379 83.9922 100.563 89.023 104.31 91.592V92.0202C100.884 94.375 98.3154 98.1214 98.3154 101.975C98.3154 106.364 100.456 109.147 103.239 110.966V111.394C98.3154 114.177 95.6394 117.71 95.6394 122.098C95.6394 131.518 105.487 135.585 117.904 135.585ZM119.081 86.6682C114.907 86.6682 111.802 83.671 111.802 77.7838C111.802 72.1107 114.907 69.2206 119.081 69.2206C123.256 69.2206 126.36 72.2178 126.36 77.7838C126.36 83.671 123.256 86.6682 119.081 86.6682ZM120.366 125.738C113.301 125.738 108.591 123.597 108.591 119.636C108.591 117.71 109.555 116.104 111.481 114.392C113.194 114.82 115.335 115.034 118.974 115.034H124.433C129.678 115.034 132.568 115.89 132.568 119.208C132.568 122.848 127.43 125.738 120.366 125.738ZM177.054 114.284C190.434 114.284 202.851 104.116 202.851 86.4541C202.851 68.7925 190.434 58.6237 177.054 58.6237C163.567 58.6237 151.15 68.7925 151.15 86.4541C151.15 104.116 163.567 114.284 177.054 114.284ZM177.054 101.547C170.525 101.547 167.314 95.6595 167.314 86.4541C167.314 77.2486 170.525 71.3614 177.054 71.3614C183.477 71.3614 186.795 77.2486 186.795 86.4541C186.795 95.6595 183.477 101.547 177.054 101.547ZM224.995 113H243.191L260.532 59.9082H245.439L238.482 84.9555C237.09 90.2005 235.699 95.7666 234.414 101.333H233.986C232.595 95.7666 231.203 90.2005 229.811 84.9555L222.961 59.9082H207.119L224.995 113Z" fill="#002B47"/>
<circle cx="49.5" cy="26.5" r="4.5" fill="#005B84"/>
<circle cx="114" cy="15" r="6" fill="#005B84"/>
<circle cx="218.5" cy="176.5" r="5.5" fill="#005B84"/>
<circle cx="195" cy="174" r="3" fill="#005B84"/>
<circle cx="231.5" cy="152.5" r="2.5" fill="#005B84"/>
<circle cx="298.5" cy="73.5" r="5.5" fill="#005B84"/>
<circle cx="173" cy="178" r="2" fill="#005B84"/>
<circle cx="82.5" cy="181.5" r="2.5" fill="#005B84"/>
<circle cx="111" cy="171" r="1" fill="#005B84"/>
<circle cx="122" cy="190" r="1" fill="#005B84"/>
<circle cx="150" cy="178" r="1" fill="#005B84"/>
<circle cx="53.5" cy="182.5" r="0.5" fill="#005B84"/>
<circle cx="28" cy="166" r="4" fill="#005B84"/>
<circle cx="133" cy="171" r="5" fill="#005B84"/>
<circle cx="179" cy="157" r="2" fill="#005B84"/>
<circle cx="297" cy="136" r="2" fill="#005B84"/>
<circle cx="2" cy="99" r="2" fill="#005B84"/>
<circle cx="272" cy="176" r="2" fill="#005B84"/>
<circle cx="301" cy="111" r="2" fill="#005B84"/>
<circle cx="255" cy="148" r="2" fill="#005B84"/>
<circle cx="275" cy="80" r="2" fill="#005B84"/>
<circle cx="237" cy="28" r="2" fill="#005B84"/>
<circle cx="190" cy="38" r="2" fill="#005B84"/>
<circle cx="181" cy="8" r="2" fill="#005B84"/>
<circle cx="51.5" cy="157.5" r="1.5" fill="#005B84"/>
<circle cx="31.5" cy="149.5" r="2.5" fill="#005B84"/>
<circle cx="11.5" cy="134.5" r="2.5" fill="#005B84"/>
<circle cx="10" cy="150" r="1" fill="#7AA5C1"/>
<circle cx="68" cy="167" r="1" fill="#005B84"/>
<circle cx="27" cy="82" r="1" fill="#005B84"/>
<circle cx="4" cy="84" r="1" fill="#7AA5C1"/>
<circle cx="29" cy="38" r="1" fill="#005B84"/>
<circle cx="67" cy="49" r="1" fill="#005B84"/>
<circle cx="155" cy="34" r="1" fill="#005B84"/>
<circle cx="196" cy="25" r="1" fill="#005B84"/>
<circle cx="206" cy="157" r="1" fill="#005B84"/>
<circle cx="280" cy="147" r="1" fill="#005B84"/>
<circle cx="249" cy="165" r="1" fill="#005B84"/>
<circle cx="293" cy="86" r="1" fill="#005B84"/>
<circle cx="276" cy="52" r="1" fill="#005B84"/>
<circle cx="240" cy="42" r="1" fill="#005B84"/>
<circle cx="226" cy="14" r="1" fill="#005B84"/>
<circle cx="141.5" cy="27.5" r="2.5" fill="#005B84"/>
<circle cx="139" cy="7" r="1" fill="#005B84"/>
<circle cx="46.5" cy="50.5" r="1.5" fill="#005B84"/>
<circle cx="92" cy="1" r="1" fill="#005B84"/>
<circle cx="99" cy="32" r="1" fill="#005B84"/>
<circle cx="125.5" cy="39.5" r="1.5" fill="#005B84"/>
<circle cx="3.5" cy="115.5" r="1.5" fill="#7AA5C1"/>
<circle cx="21.5" cy="61.5" r="3.5" fill="#005B84"/>
<circle cx="77.5" cy="29.5" r="3.5" fill="#005B84"/>
<circle cx="264.5" cy="37.5" r="3.5" fill="#005B84"/>
<circle cx="219.5" cy="29.5" r="4.5" fill="#005B84"/>
<circle cx="174" cy="26" r="3" fill="#005B84"/>
<circle cx="158" cy="159" r="3" fill="#005B84"/>
<circle cx="279.5" cy="158.5" r="3.5" fill="#005B84"/>
<circle cx="90" cy="160" r="3" fill="#005B84"/>
</svg>
