<svg width="200" height="200" viewBox="0 0 200 200" fill="none" xmlns="http://www.w3.org/2000/svg">
<circle cx="61.5" cy="31.5" r="5.5" fill="#7AB9D5"/>
<circle cx="151" cy="116" r="5" fill="#005B84"/>
<circle cx="130" cy="160" r="3" fill="#7AA5C1"/>
<circle cx="159" cy="78" r="5" fill="#7AB9D5"/>
<circle cx="109.5" cy="164.5" r="1.5" fill="#005B84"/>
<circle cx="75" cy="165" r="2" fill="#005B84"/>
<circle cx="98.5" cy="161.5" r="0.5" fill="#005B84"/>
<circle cx="30.5" cy="137.5" r="3.5" fill="#005B84"/>
<circle cx="19.5" cy="84.5" r="4.5" fill="#005B84"/>
<circle cx="146.5" cy="81.5" r="1.5" fill="#7AA5C1"/>
<circle cx="26" cy="107" r="2" fill="#005B84"/>
<circle cx="111.5" cy="151.5" r="1.5" fill="#005B84"/>
<circle cx="169.5" cy="89.5" r="1.5" fill="#005B84"/>
<circle cx="140.5" cy="66.5" r="1.5" fill="#005B84"/>
<circle cx="128.5" cy="45.5" r="1.5" fill="#7AA5C1"/>
<circle cx="171.5" cy="110.5" r="1.5" fill="#005B84"/>
<circle cx="47.5" cy="137.5" r="1.5" fill="#005B84"/>
<circle cx="132" cy="36" r="2" fill="#005B84"/>
<circle cx="156.5" cy="97.5" r="2.5" fill="#005B84"/>
<circle cx="34" cy="120" r="1" fill="#7AA5C1"/>
<circle cx="70" cy="150" r="1" fill="#005B84"/>
<circle cx="37" cy="80" r="1" fill="#005B84"/>
<circle cx="26" cy="71" r="1" fill="#7AA5C1"/>
<circle cx="87" cy="27" r="1" fill="#005B84"/>
<circle cx="56.5" cy="42.5" r="0.5" fill="#005B84"/>
<circle cx="168" cy="122" r="1" fill="#005B84"/>
<circle cx="99.5" cy="23.5" r="0.5" fill="#005B84"/>
<circle cx="154" cy="60" r="1" fill="#005B84"/>
<circle cx="139" cy="54" r="1" fill="#005B84"/>
<circle cx="79.5" cy="40.5" r="2.5" fill="#005B84"/>
<circle cx="101.5" cy="37.5" r="0.5" fill="#005B84"/>
<circle cx="45.5" cy="48.5" r="1.5" fill="#005B84"/>
<circle cx="146" cy="46" r="1" fill="#005B84"/>
<circle cx="56" cy="53" r="1" fill="#7AA5C1"/>
<circle cx="39" cy="104" r="1" fill="#7AA5C1"/>
<circle cx="42" cy="64" r="3" fill="#005B84"/>
<circle cx="114" cy="39" r="3" fill="#005B84"/>
<circle cx="49" cy="154" r="4" fill="#7AB9D5"/>
<circle cx="112" cy="26" r="3" fill="#005B84"/>
<circle cx="89" cy="153" r="3" fill="#005B84"/>
<path d="M129.726 119.067C130.933 117.692 132.996 117.479 134.459 118.579L180.299 153.049C181.937 154.282 182.17 156.652 180.804 158.18L166.872 173.755C165.491 175.299 163.079 175.312 161.681 173.784L122.983 131.474C121.779 130.157 121.758 128.145 122.936 126.803L129.726 119.067Z" fill="#7AB9D5" stroke="#005B84"/>
<rect x="120" y="132.544" width="22.6623" height="7.3146" rx="1" transform="rotate(-50.7283 120 132.544)" fill="#005B84"/>
<path d="M80.0502 57.3662C102.035 50.8407 125.267 63.5174 131.879 85.7935C138.491 108.07 125.937 131.368 103.952 137.894C81.9673 144.419 58.7359 131.742 52.124 109.466C45.5122 87.1902 58.0655 63.8918 80.0502 57.3662Z" stroke="#7AB9D5" stroke-width="10"/>
<path d="M92.5 59.5C112.928 59.5 129.5 76.2831 129.5 97C129.5 117.717 112.928 134.5 92.5 134.5C72.0717 134.5 55.5 117.717 55.5 97C55.5 76.2831 72.0717 59.5 92.5 59.5Z" fill="white" stroke="#005B84"/>
<path d="M92 50.5C117.676 50.5 138.5 71.5376 138.5 97.5C138.5 123.462 117.676 144.5 92 144.5C66.3237 144.5 45.5 123.462 45.5 97.5C45.5 71.5376 66.3237 50.5 92 50.5Z" stroke="#005B84"/>
<path d="M77.9072 76.5966C77.9072 76.5966 91.5421 71.2556 99.2255 73.6013C106.909 75.947 109.641 79.1367 109.902 83.8592C110.163 88.5818 99.1664 99.6536 99.1664 99.6536L98.9804 108.583L89.4603 107.821C89.4603 107.821 91.0143 97.9127 91.003 97.004C90.9615 97.0262 90.9484 97.0165 90.9675 96.9712C90.9908 96.9156 91.0021 96.93 91.003 97.004C91.6377 96.6642 98.9164 88.8709 99.6681 86.9697C100.469 84.9442 99.8717 81.4892 94.7942 81.0827C89.7168 80.6763 82.2366 86.3465 82.2366 86.3465C82.2366 86.3465 77.3025 81.3241 77.9072 76.5966Z" fill="#005B84"/>
<path d="M88.3384 121.837L89.6379 113.582L99.1581 114.344L99.7626 122.751L88.3384 121.837Z" fill="#005B84"/>
</svg>
